<?xml version="1.0" encoding="UTF-8"?>
<svg version="1.1" xmlns="http://www.w3.org/2000/svg" width="512" height="512">
<path d="M0 0 C0.65880157 0.00054382 1.31760315 0.00108765 1.99636841 0.00164795 C12.94884998 0.0431051 23.0324326 0.91979187 33.4375 4.375 C34.0867041 4.58930664 34.7359082 4.80361328 35.40478516 5.02441406 C63.49588867 14.64724533 85.61372886 34.71307639 98.68676758 61.28076172 C105.64220695 76.003903 108.72755193 90.62317048 108.84375 106.890625 C108.85515015 108.14582947 108.86655029 109.40103394 108.8782959 110.6942749 C108.8970754 113.32967818 108.9102155 115.96512715 108.91796875 118.60058594 C108.92900238 121.96216666 108.9772704 125.32215338 109.03391266 128.68323135 C109.08024442 131.91890587 109.08406228 135.15466532 109.09375 138.390625 C109.1184436 139.5886676 109.14313721 140.78671021 109.1685791 142.02105713 C109.13962935 147.44796932 109.11399643 151.31854841 105.54101562 155.59667969 C102.36782023 158.71975659 99.76204549 160.31777024 95.20629883 160.42993164 C94.40216553 160.42340576 93.59803223 160.41687988 92.76953125 160.41015625 C91.95846924 160.40508057 91.14740723 160.40000488 90.31176758 160.39477539 C89.69325928 160.38824951 89.07475098 160.38172363 88.4375 160.375 C88.45844727 161.2 88.47939453 162.025 88.50097656 162.875 C89.0000274 185.5154835 86.89420717 202.86767138 76.4375 223.375 C77.61505859 224.02855469 77.61505859 224.02855469 78.81640625 224.6953125 C93.14089174 232.81545029 102.66639973 242.56720362 108.4375 258.375 C109.25 262.0625 109.25 262.0625 109.4375 264.375 C110.05753906 264.40078125 110.67757813 264.4265625 111.31640625 264.453125 C126.16661334 265.40422997 138.62110949 270.22840469 151.4375 277.375 C152.42621094 277.92027344 153.41492188 278.46554687 154.43359375 279.02734375 C176.60858393 292.19072689 191.9378167 314.6862805 198.4375 339.375 C200.66807151 348.35783572 200.87419108 357.31429918 200.91796875 366.51855469 C200.93752582 369.0032806 200.99981322 371.48478628 201.0625 373.96875 C201.25733875 388.2589547 201.25733875 388.2589547 196.41601562 394.66162109 C188.86798528 401.19815576 182.14061845 400.95000917 172.45779419 400.89639282 C170.91548418 400.9024368 169.37318016 400.91021626 167.83088672 400.91957796 C163.59978545 400.94014384 159.36902301 400.93577309 155.13789392 400.92721677 C150.57198445 400.92228331 146.00615667 400.94030928 141.4402771 400.95529175 C132.49793972 400.9807929 123.55572243 400.98437226 114.61335482 400.97969122 C107.34480142 400.97612537 100.07628448 400.97962309 92.80773544 400.98814011 C91.77329727 400.98933048 90.73885911 400.99052086 89.67307433 400.99174731 C87.57161864 400.99417081 85.47016296 400.99659908 83.36870728 400.99903207 C63.66030184 401.02078591 43.95196483 401.01645674 24.24355553 401.00426237 C6.21485207 400.99392382 -11.81363528 401.01643482 -29.84229599 401.05445881 C-48.3555747 401.09320548 -66.86875114 401.1097294 -85.38207066 401.10221231 C-95.77532317 401.09838666 -106.16839173 401.10337897 -116.56161118 401.13164139 C-125.40953246 401.1554582 -134.25715657 401.1582913 -143.1050819 401.13406105 C-147.61873266 401.1222756 -152.13183972 401.12010497 -156.64545441 401.14406586 C-160.7798393 401.16575837 -164.91322577 401.15960991 -169.04756369 401.13154249 C-170.54077472 401.12624133 -172.03406368 401.13100505 -173.5271983 401.14701422 C-182.39640958 401.23548612 -188.96052767 400.72039882 -195.5625 394.375 C-199.42192598 389.83064864 -200.1594536 385.04650399 -200.09375 379.23046875 C-200.0975769 378.46180984 -200.10140381 377.69315094 -200.10534668 376.90119934 C-200.10805664 375.27664885 -200.10075972 373.65205403 -200.08398438 372.02758789 C-200.06288369 369.60652441 -200.08364377 367.18854031 -200.109375 364.76757812 C-200.16203761 336.57510625 -189.73872937 312.02908429 -170.03515625 291.77734375 C-153.82764486 276.37901795 -133.08701872 266.18135003 -110.69140625 264.109375 C-108.32485672 263.55456167 -108.32485672 263.55456167 -107.2265625 261.0390625 C-106.88367188 260.03617187 -106.54078125 259.03328125 -106.1875 258 C-100.68843553 243.5477712 -92.12675523 233.72836348 -78.5625 226.375 C-77.2361687 226.0148137 -75.90343396 225.6763055 -74.5625 225.375 C-74.81418945 224.88322266 -75.06587891 224.39144531 -75.32519531 223.88476562 C-86.30088183 202.21507841 -88.16997641 184.30022463 -87.5625 160.375 C-88.67310791 160.43373291 -88.67310791 160.43373291 -89.80615234 160.49365234 C-97.85791347 160.74406914 -97.85791347 160.74406914 -101.3515625 158.9140625 C-101.95742187 158.28242188 -102.56328125 157.65078125 -103.1875 157 C-103.81914062 156.37351563 -104.45078125 155.74703125 -105.1015625 155.1015625 C-107.675563 152.05956191 -107.69986214 150.02185529 -107.73950195 146.109375 C-107.75875481 144.45494385 -107.75875481 144.45494385 -107.77839661 142.76708984 C-107.78578354 141.5652002 -107.79317047 140.36331055 -107.80078125 139.125 C-107.808853 137.88314941 -107.81692474 136.64129883 -107.82524109 135.36181641 C-107.83910548 132.71871199 -107.85011006 130.07573315 -107.85766602 127.43261719 C-107.87071288 123.44697835 -107.91853669 119.46197423 -107.96289062 115.4765625 C-108.17100832 81.53339204 -99.00918949 54.54726143 -75.3125 29.75 C-55.06416522 10.0071715 -28.01807484 -0.03916869 0 0 Z " fill="#CE3B3B" transform="translate(255.5625,55.625)"/>
<path d="M0 0 C-0.2165625 1.1653125 -0.433125 2.330625 -0.65625 3.53125 C-2.34842058 13.24065582 -3.31948729 22.76224211 -3.375 32.625 C-3.39530273 34.09743164 -3.39530273 34.09743164 -3.41601562 35.59960938 C-3.36926737 43.25074062 -2.20784196 50.29397956 1.75 56.9375 C7.75803795 62.44486812 14.64709169 62.63956505 22.42578125 62.4375 C31.12005755 61.92345524 39.74152627 60.28545404 48.31054688 58.77929688 C49.60412109 58.55306641 50.89769531 58.32683594 52.23046875 58.09375 C53.38957764 57.88427734 54.54868652 57.67480469 55.74291992 57.45898438 C58.87935289 57.01700147 61.83780609 56.91611423 65 57 C65.25990723 57.51046875 65.51981445 58.0209375 65.78759766 58.546875 C77.03302581 80.54053422 89.6775022 101.65867101 102.59643555 122.7019043 C103.61927936 124.37663535 104.59966661 126.07751563 105.55395508 127.79223633 C106.26974731 128.88507935 106.26974731 128.88507935 107 130 C107.66 130 108.32 130 109 130 C110.55449951 127.88364852 110.55449951 127.88364852 112.125 125.12890625 C112.74383057 124.08863281 113.36266113 123.04835938 114.00024414 121.9765625 C114.66016357 120.84992188 115.32008301 119.72328125 116 118.5625 C116.68616681 117.40198833 117.37293796 116.24183378 118.06030273 115.08203125 C119.42694095 112.7733791 120.78933394 110.4623081 122.14794922 108.14892578 C123.66383341 105.57156298 125.18863005 103.00017174 126.72265625 100.43359375 C131.76667425 91.97159665 136.61775478 83.40397822 141.4375 74.8125 C142.34350952 73.19794922 142.34350952 73.19794922 143.26782227 71.55078125 C143.83815186 70.52984375 144.40848145 69.50890625 144.99609375 68.45703125 C145.50325928 67.54928955 146.0104248 66.64154785 146.53295898 65.70629883 C148.0892157 62.83542086 149.55486853 59.92817244 151 57 C159.08066376 57.37067265 166.84878569 58.87100994 174.74121094 60.54003906 C186.66405682 63.04248024 200.80769967 66.01067981 212 60 C216.87351431 55.6533521 218.58107551 48.8422002 219.27319336 42.49438477 C219.36665511 39.92684622 219.36359942 37.38119203 219.3125 34.8125 C219.30412109 33.88356934 219.29574219 32.95463867 219.28710938 31.99755859 C219.10829894 21.29217808 218.10888499 10.6435264 217 0 C232.66017144 1.19124533 245.39641037 5.41445165 259 13 C260.48306641 13.81791016 260.48306641 13.81791016 261.99609375 14.65234375 C284.17108393 27.81572689 299.5003167 50.3112805 306 75 C308.23057151 83.98283572 308.43669108 92.93929918 308.48046875 102.14355469 C308.50002582 104.6282806 308.56231322 107.10978628 308.625 109.59375 C308.81983875 123.8839547 308.81983875 123.8839547 303.97851562 130.28662109 C296.43048528 136.82315576 289.70311845 136.57500917 280.02029419 136.52139282 C278.47798418 136.5274368 276.93568016 136.53521626 275.39338672 136.54457796 C271.16228545 136.56514384 266.93152301 136.56077309 262.70039392 136.55221677 C258.13448445 136.54728331 253.56865667 136.56530928 249.0027771 136.58029175 C240.06043972 136.6057929 231.11822243 136.60937226 222.17585482 136.60469122 C214.90730142 136.60112537 207.63878448 136.60462309 200.37023544 136.61314011 C199.33579727 136.61433048 198.30135911 136.61552086 197.23557433 136.61674731 C195.13411864 136.61917081 193.03266296 136.62159908 190.93120728 136.62403207 C171.22280184 136.64578591 151.51446483 136.64145674 131.80605553 136.62926237 C113.77735207 136.61892382 95.74886472 136.64143482 77.72020401 136.67945881 C59.2069253 136.71820548 40.69374886 136.7347294 22.18042934 136.72721231 C11.78717683 136.72338666 1.39410827 136.72837897 -8.99911118 136.75664139 C-17.84703246 136.7804582 -26.69465657 136.7832913 -35.5425819 136.75906105 C-40.05623266 136.7472756 -44.56933972 136.74510497 -49.08295441 136.76906586 C-53.2173393 136.79075837 -57.35072577 136.78460991 -61.48506369 136.75654249 C-62.97827472 136.75124133 -64.47156368 136.75600505 -65.9646983 136.77201422 C-74.83390958 136.86048612 -81.39802767 136.34539882 -88 130 C-91.85942598 125.45564864 -92.5969536 120.67150399 -92.53125 114.85546875 C-92.5350769 114.08680984 -92.53890381 113.31815094 -92.54284668 112.52619934 C-92.54555664 110.90164885 -92.53825972 109.27705403 -92.52148438 107.65258789 C-92.50038369 105.23152441 -92.52114377 102.81354031 -92.546875 100.39257812 C-92.59953761 72.20010625 -82.17622937 47.65408429 -62.47265625 27.40234375 C-46.34614824 12.08097711 -22.88048588 -0.90222736 0 0 Z " fill="#FED3D3" transform="translate(148,320)"/>
<path d="M0 0 C4.2460883 1.24848593 7.48469567 2.77811508 11.0625 5.375 C12.28646484 6.25285156 12.28646484 6.25285156 13.53515625 7.1484375 C14.34855469 7.75945312 15.16195312 8.37046875 16 9 C16.84433594 9.63035156 17.68867188 10.26070313 18.55859375 10.91015625 C32.79014685 23.09236571 36.05287518 40.83592031 37.61328125 58.44140625 C38.05066476 64.16817359 38.25265649 69.88247594 38.3125 75.625 C38.33006348 76.5121167 38.34762695 77.3992334 38.36572266 78.31323242 C38.35881484 85.67213151 37.27126464 93.35677355 32.8125 99.4375 C26.64810729 105.05394669 20.42599031 105.53278504 12.37109375 105.359375 C-2.17252392 104.40569515 -16.76033627 101.01223656 -31 98 C-31.33064453 99.175625 -31.33064453 99.175625 -31.66796875 100.375 C-33.43560353 105.18545477 -35.83566828 109.52157248 -38.3125 114 C-38.84447998 114.96695801 -39.37645996 115.93391602 -39.92456055 116.93017578 C-50.30519899 135.68121933 -61.56001077 153.88211091 -73 172 C-76.82146332 170.72617889 -77.20868165 169.4569277 -79.22265625 166.03125 C-79.83826416 164.99419922 -80.45387207 163.95714844 -81.08813477 162.88867188 C-81.73967529 161.77041016 -82.39121582 160.65214844 -83.0625 159.5 C-83.74395597 158.34395606 -84.42617157 157.18835958 -85.10913086 156.03320312 C-86.46559444 153.7358151 -87.81615646 151.43526679 -89.1640625 149.1328125 C-90.67131705 146.56085898 -92.18918902 143.99621003 -93.71875 141.4375 C-98.77119188 132.96798749 -103.64876722 124.39853437 -108.5 115.8125 C-109.11238525 114.73613281 -109.72477051 113.65976562 -110.35571289 112.55078125 C-110.92926514 111.52984375 -111.50281738 110.50890625 -112.09375 109.45703125 C-112.86235352 108.0954187 -112.86235352 108.0954187 -113.64648438 106.70629883 C-115.06786706 103.86430261 -116.06629612 101.03370195 -117 98 C-118.03181396 98.18175781 -119.06362793 98.36351562 -120.12670898 98.55078125 C-124.04014559 99.23616057 -127.95666571 99.90236017 -131.87426758 100.56347656 C-133.5535184 100.84945622 -135.23195076 101.14029412 -136.90942383 101.43652344 C-145.75127016 102.99451134 -154.42688527 104.26796207 -163.421875 104.29296875 C-164.11675522 104.29574829 -164.81163544 104.29852783 -165.52757263 104.3013916 C-172.35752314 104.19355111 -176.27210161 102.50671744 -181.3125 97.875 C-185.84938881 90.14548573 -186.46730039 82.10290023 -186.3125 73.3125 C-186.3019458 72.26030273 -186.2913916 71.20810547 -186.28051758 70.12402344 C-186.14189917 61.94741885 -185.53176329 54.04660464 -184 46 C-183.81695312 44.97132813 -183.63390625 43.94265625 -183.4453125 42.8828125 C-180.22971035 27.59877759 -171.26287194 14.47256782 -158.1875 5.9375 C-154.88245178 3.94080174 -151.61493685 2.35641257 -148 1 C-147.23816406 1.9178125 -146.47632813 2.835625 -145.69140625 3.78125 C-132.60047125 19.41320349 -118.71157955 30.75595927 -99 37 C-98.03449219 37.31839844 -97.06898438 37.63679688 -96.07421875 37.96484375 C-80.06843374 42.4697145 -62.68690243 40.95289549 -47 36 C-45.86304688 35.649375 -44.72609375 35.29875 -43.5546875 34.9375 C-25.33337757 28.61492499 -10.50589557 15.9751412 0 0 Z " fill="#CE3B3B" transform="translate(330,279)"/>
<path d="M0 0 C1.70996094 1.41772461 1.70996094 1.41772461 3.234375 3.40234375 C4.08841919 4.48443115 4.08841919 4.48443115 4.9597168 5.58837891 C5.84590698 6.75119385 5.84590698 6.75119385 6.75 7.9375 C7.9981573 9.50901327 9.24944445 11.07804595 10.50390625 12.64453125 C11.10605957 13.40072754 11.70821289 14.15692383 12.32861328 14.93603516 C24.23981463 29.64495952 40.57728699 38.43524567 59.23046875 41.05078125 C60.49656982 41.22907471 61.7626709 41.40736816 63.06713867 41.59106445 C64.03498291 41.72601318 65.00282715 41.86096191 66 42 C66.76176605 72.00186285 63.17313541 94.68339568 43 118 C42.40574219 118.69609375 41.81148437 119.3921875 41.19921875 120.109375 C26.95513107 135.519852 4.10226054 145.28690121 -16.73046875 146.2734375 C-43.65003413 146.98666978 -66.082148 138.10741211 -85.6875 119.6875 C-94.61293483 110.18623066 -101.38124216 100.1947818 -106 88 C-106.43441406 86.86046875 -106.86882812 85.7209375 -107.31640625 84.546875 C-111.56134986 70.88022728 -110.3592644 56.14949027 -110 42 C-109.09870361 41.98018066 -108.19740723 41.96036133 -107.26879883 41.93994141 C-103.85971709 41.8608991 -100.45099614 41.77418797 -97.04223633 41.68261719 C-95.57909409 41.64480907 -94.11587398 41.60988163 -92.65258789 41.578125 C-64.77394449 40.96603815 -45.37981046 32.49764641 -24.02685547 14.67529297 C-20.78988733 11.99978401 -17.49282169 9.40275737 -14.1875 6.8125 C-13.60693848 6.35520508 -13.02637695 5.89791016 -12.42822266 5.42675781 C-4.70215291 -0.63136675 -4.70215291 -0.63136675 0 0 Z " fill="#FED3D3" transform="translate(278,174)"/>
<path d="M0 0 C4.2460883 1.24848593 7.48469567 2.77811508 11.0625 5.375 C11.87847656 5.96023438 12.69445312 6.54546875 13.53515625 7.1484375 C14.75525391 8.06496094 14.75525391 8.06496094 16 9 C17.26650391 9.94552734 17.26650391 9.94552734 18.55859375 10.91015625 C32.79014685 23.09236571 36.05287518 40.83592031 37.61328125 58.44140625 C38.05066476 64.16817359 38.25265649 69.88247594 38.3125 75.625 C38.33006348 76.5121167 38.34762695 77.3992334 38.36572266 78.31323242 C38.35881484 85.67213151 37.27126464 93.35677355 32.8125 99.4375 C26.65057581 105.05169759 20.43093671 105.53309734 12.37890625 105.359375 C-1.4891843 104.44955969 -15.55980416 101.46505049 -29 98 C-28.38788532 94.24932213 -27.3030918 91.18039188 -25.671875 87.75390625 C-25.20378418 86.7580249 -24.73569336 85.76214355 -24.25341797 84.73608398 C-23.75729004 83.68880127 -23.26116211 82.64151855 -22.75 81.5625 C-11.61887886 58.77452081 -11.61887886 58.77452081 -11.82421875 34.05859375 C-12.81870367 31.34132083 -13.90065162 28.67615099 -15 26 C-15.68001764 24.00449995 -16.35004459 22.00549306 -17 20 C-16.443125 19.47792969 -15.88625 18.95585937 -15.3125 18.41796875 C-9.43475381 12.74872369 -4.61548708 6.7282986 0 0 Z " fill="#941B1B" transform="translate(330,279)"/>
<path d="M0 0 C3.83827287 3.79562539 7.57074818 7.67521496 11.25 11.625 C11.79140625 12.19734375 12.3328125 12.7696875 12.890625 13.359375 C15.23618917 15.88085648 16.89806214 17.69418643 18 21 C17.0390625 23.55859375 17.0390625 23.55859375 15.625 26.4375 C13.11494118 31.59083306 11.85390781 35.44837708 11.8125 41.1875 C11.79832031 42.06792969 11.78414062 42.94835937 11.76953125 43.85546875 C12.31044099 51.23567796 14.54670872 58.10565203 17.125 65 C17.42486816 65.81162598 17.72473633 66.62325195 18.03369141 67.45947266 C20.49165213 73.9673245 23.32467337 80.25331775 26.42236328 86.48046875 C28.15837969 90.00287123 29.32320465 93.14334079 30 97 C25.33010551 97.87393463 20.65701021 98.72720187 15.98022461 99.56347656 C14.39787459 99.84917199 12.81643867 100.13998926 11.23608398 100.43652344 C2.69390291 102.03563279 -5.65179842 103.26882164 -14.359375 103.29296875 C-15.40737526 103.29713806 -15.40737526 103.29713806 -16.47654724 103.3013916 C-23.33360136 103.19398771 -27.25116204 101.52595921 -32.3125 96.875 C-36.84938881 89.14548573 -37.46730039 81.10290023 -37.3125 72.3125 C-37.3019458 71.26030273 -37.2913916 70.20810547 -37.28051758 69.12402344 C-37.14189917 60.94741885 -36.53176329 53.04660464 -35 45 C-34.81695312 43.97132813 -34.63390625 42.94265625 -34.4453125 41.8828125 C-31.49457691 27.85771126 -23.62749559 15.35047752 -12.0546875 6.83203125 C-8.14825323 4.30587042 -4.18350155 2.03337633 0 0 Z " fill="#941B1B" transform="translate(181,280)"/>
</svg>
